<svg width="20" height="20" viewBox="0 0 20 20" fill="none" xmlns="http://www.w3.org/2000/svg">
<path fill-rule="evenodd" clip-rule="evenodd" d="M19.4375 10.2273C19.4375 9.51819 19.3751 8.83637 19.2591 8.18182H10.0175V12.05H15.2984C15.071 13.3 14.3796 14.3591 13.3404 15.0682V17.5773H16.5116C18.3671 15.8364 19.4375 13.2727 19.4375 10.2273Z" fill="#4285F4"/>
<path fill-rule="evenodd" clip-rule="evenodd" d="M10.0175 20C12.6669 20 14.8881 19.1045 16.5116 17.5772L13.3404 15.0681C12.4617 15.6681 11.3378 16.0227 10.0175 16.0227C7.46181 16.0227 5.2986 14.2636 4.52698 11.9H1.24872V14.4909C2.86332 17.7591 6.18173 20 10.0175 20Z" fill="#34A853"/>
<path fill-rule="evenodd" clip-rule="evenodd" d="M4.52698 11.8999C4.33073 11.2999 4.21922 10.659 4.21922 9.99994C4.21922 9.34085 4.33073 8.69994 4.52698 8.09994V5.50903H1.24871C0.584136 6.85903 0.205017 8.38631 0.205017 9.99994C0.205017 11.6136 0.584136 13.1409 1.24871 14.4909L4.52698 11.8999Z" fill="#FBBC05"/>
<path fill-rule="evenodd" clip-rule="evenodd" d="M10.0175 3.97727C11.4582 3.97727 12.7516 4.48182 13.7686 5.47273L16.583 2.60455C14.8836 0.990909 12.6624 0 10.0175 0C6.18173 0 2.86332 2.24091 1.24872 5.50909L4.52698 8.1C5.2986 5.73636 7.46181 3.97727 10.0175 3.97727Z" fill="#EA4335"/>
</svg>
