<svg width="139" height="101" viewBox="0 0 139 101" fill="none" xmlns="http://www.w3.org/2000/svg">
<path opacity="0.19" d="M82.1364 37.2437V26.5125C85.6114 25.0396 89.1664 23.9349 92.8015 23.1984C96.4323 22.462 100.248 22.0938 104.25 22.0938C106.988 22.0938 109.673 22.3042 112.306 22.725C114.938 23.1458 117.518 23.6719 120.045 24.3031V34.4031C117.518 33.4562 114.966 32.7471 112.388 32.2758C109.806 31.8003 107.093 31.5625 104.25 31.5625C100.248 31.5625 96.4049 32.0633 92.7193 33.0649C89.0337 34.0622 85.5061 35.4552 82.1364 37.2437ZM82.1364 71.9625V61.2312C85.6114 59.7583 89.1664 58.6536 92.8015 57.9172C96.4323 57.1807 100.248 56.8125 104.25 56.8125C106.988 56.8125 109.673 57.0229 112.306 57.4438C114.938 57.8646 117.518 58.3906 120.045 59.0219V69.1219C117.518 68.175 114.966 67.4659 112.388 66.9946C109.806 66.519 107.093 66.2812 104.25 66.2812C100.248 66.2812 96.4049 66.7547 92.7193 67.7016C89.0337 68.6484 85.5061 70.0687 82.1364 71.9625ZM82.1364 54.6031V43.8719C85.6114 42.399 89.1664 41.2943 92.8015 40.5578C96.4323 39.8214 100.248 39.4531 104.25 39.4531C106.988 39.4531 109.673 39.6635 112.306 40.0844C114.938 40.5052 117.518 41.0313 120.045 41.6625V51.7625C117.518 50.8156 114.966 50.1065 112.388 49.6352C109.806 49.1596 107.093 48.9219 104.25 48.9219C100.248 48.9219 96.4049 49.4227 92.7193 50.4242C89.0337 51.4216 85.5061 52.8146 82.1364 54.6031ZM34.75 75.75C39.6992 75.75 44.5179 76.3013 49.206 77.4039C53.8899 78.5107 58.5485 80.1687 63.1818 82.3781V20.2C58.8644 17.675 54.2837 15.7813 49.4398 14.5188C44.5958 13.2563 39.6992 12.625 34.75 12.625C30.9591 12.625 27.1956 12.9932 23.4594 13.7297C19.719 14.4661 16.1114 15.5708 12.6364 17.0437V79.5375C16.322 78.275 19.9823 77.3281 23.6174 76.6969C27.2482 76.0656 30.9591 75.75 34.75 75.75ZM75.8182 82.3781C80.4515 80.1687 85.1122 78.5107 89.8003 77.4039C94.4842 76.3013 99.3008 75.75 104.25 75.75C108.041 75.75 111.754 76.0656 115.389 76.6969C119.02 77.3281 122.678 78.275 126.364 79.5375V17.0437C122.889 15.5708 119.283 14.4661 115.547 13.7297C111.807 12.9932 108.041 12.625 104.25 12.625C99.3008 12.625 94.4042 13.2563 89.5602 14.5188C84.7163 15.7813 80.1356 17.675 75.8182 20.2V82.3781ZM69.5 101C64.4455 97.0021 58.9697 93.8984 53.0727 91.6891C47.1758 89.4797 41.0682 88.375 34.75 88.375C30.3273 88.375 25.9846 88.9536 21.7219 90.1109C17.455 91.2682 13.3735 92.899 9.47727 95.0031C7.26591 96.1604 5.13458 96.1078 3.08327 94.8453C1.02776 93.5828 0 91.7417 0 89.3219V13.2562C0 12.099 0.290636 10.9943 0.871909 9.94219C1.44897 8.8901 2.31667 8.10104 3.475 7.575C8.31894 5.05 13.3735 3.15625 18.6386 1.89375C23.9038 0.631251 29.2742 0 34.75 0C40.8576 0 46.8346 0.789062 52.681 2.36719C58.5232 3.94531 64.1295 6.3125 69.5 9.46875C74.8705 6.3125 80.4789 3.94531 86.3253 2.36719C92.1675 0.789062 98.1424 0 104.25 0C109.726 0 115.096 0.631251 120.361 1.89375C125.627 3.15625 130.681 5.05 135.525 7.575C136.683 8.10104 137.553 8.8901 138.134 9.94219C138.711 10.9943 139 12.099 139 13.2562V89.3219C139 91.7417 137.974 93.5828 135.923 94.8453C133.868 96.1078 131.734 96.1604 129.523 95.0031C125.627 92.899 121.545 91.2682 117.278 90.1109C113.015 88.9536 108.673 88.375 104.25 88.375C97.9318 88.375 91.8242 89.4797 85.9273 91.6891C80.0303 93.8984 74.5546 97.0021 69.5 101Z" fill="black"/>
</svg>
